<svg xmlns="http://www.w3.org/2000/svg" xmlns:xlink="http://www.w3.org/1999/xlink" viewBox="0,0,256,256" width="50px" height="50px" fill-rule="nonzero"><g fill="#ffffff" fill-rule="nonzero" stroke="none" stroke-width="1" stroke-linecap="butt" stroke-linejoin="miter" stroke-miterlimit="10" stroke-dasharray="" stroke-dashoffset="0" font-family="none" font-weight="none" font-size="none" text-anchor="none" style="mix-blend-mode: normal"><g transform="scale(5.12,5.12)"><path d="M25,3c-2.36328,0 -4.43359,1.39063 -5.40625,3.4375c1.60547,-0.32422 3.40234,-0.5 5.40625,-0.5c2.00781,0 3.80078,0.17578 5.40625,0.5c-0.96875,-2.04687 -3.03125,-3.4375 -5.40625,-3.4375zM25,7.9375c-5.80469,0 -12.0625,1.53125 -12.0625,7.0625c0,1.19531 0.16406,2.21875 0.46875,3.125c0.80469,0.07813 1.625,0.32422 2.625,0.59375c1.90625,0.51563 4.78906,1.28125 8.96875,1.28125c3.80469,0 6.52344,-0.57812 8.5,-1c1.14844,-0.24609 2.07813,-0.42969 2.96875,-0.46875c0.40234,-0.99219 0.59375,-2.16406 0.59375,-3.53125c0,-5.53125 -6.25781,-7.0625 -12.0625,-7.0625zM3,8c-0.55078,0 -1,0.44922 -1,1c0,5.76953 1.3125,9.91406 3.90625,12.34375c1.54688,1.44531 3.18359,1.92188 4.1875,2.0625c-0.08594,1.06641 -0.09375,2.36719 -0.09375,4.0625c0,0.16406 0.02734,0.33203 0.03125,0.5h-8.03125c-0.5625,0 -1.03125,0.46875 -1.03125,1.03125c0,0.5625 0.46875,1.03125 1.03125,1.03125h8.15625c0.21875,1.79688 0.69531,3.58594 1.375,5.28125c-2.53125,0.60547 -9.53125,2.9375 -9.53125,10.6875c0,0.55469 0.44922,1 1,1c0.55078,0 1,-0.44531 1,-1c0,-6.875 6.75781,-8.57031 8.375,-8.875c2.27734,4.35156 6.16797,7.8125 11.625,8.71875v-16.84375c0,-0.55469 0.44922,-1 1,-1c0.55078,0 1,0.44531 1,1v16.84375c5.45703,-0.90625 9.37891,-4.33594 11.65625,-8.6875c1.70703,0.33203 8.34375,2.04297 8.34375,8.84375c0,0.55469 0.44531,1 1,1c0.55469,0 1,-0.44531 1,-1c0,-7.75 -7,-10.08203 -9.53125,-10.6875c0.67969,-1.69531 1.15625,-3.48437 1.375,-5.28125h8.15625c0.5625,0 1.03125,-0.46875 1.03125,-1.03125c0,-0.5625 -0.46875,-1.03125 -1.03125,-1.03125h-8.03125c0.00391,-0.16797 0.03125,-0.33594 0.03125,-0.5c0,-1.66016 -0.00781,-2.99219 -0.15625,-4.0625c1,-0.13281 2.67578,-0.58984 4.25,-2.0625c2.59375,-2.42969 3.90625,-6.57422 3.90625,-12.34375c0,-0.55078 -0.44531,-1 -1,-1c-0.13672,0 -0.25391,0.04297 -0.375,0.09375c-0.12109,0.05078 -0.25391,0.09766 -0.34375,0.1875c-0.17969,0.17969 -0.28125,0.44141 -0.28125,0.71875c0,5.08594 -1.10156,8.82813 -3.21875,10.84375c-1.32031,1.25781 -2.69922,1.53516 -3.34375,1.59375c-0.14453,0.01172 -0.1875,0.03125 -0.25,0.03125c-0.47266,-0.63281 -1.22656,-0.96875 -2.40625,-0.96875c-0.78125,0 -1.69531,0.21484 -2.875,0.46875c-2.0625,0.4375 -4.89062,1.03125 -8.90625,1.03125c-4.44531,0 -7.49219,-0.83203 -9.5,-1.375c-1.14844,-0.3125 -1.95312,-0.53125 -2.6875,-0.53125c-1.25391,0 -1.96094,0.39063 -2.34375,1.3125c-0.66016,-0.07422 -1.93359,-0.32812 -3.1875,-1.5c-2.14453,-2.00781 -3.28125,-5.78516 -3.28125,-10.90625c0,-0.55078 -0.44922,-1 -1,-1z"></path></g></g></svg>