<?xml version="1.0" encoding="UTF-8"?><svg id="Layer_1" xmlns="http://www.w3.org/2000/svg" viewBox="0 0 104.43 139.3"><defs><style>.cls-1{fill:#fff;}</style></defs><path class="cls-1" d="M102.32,48.58c-1.17,0-2.11,9.45-2.11,21.1s.94,21.1,2.11,21.1,2.11-9.45,2.11-21.1-.94-21.1-2.11-21.1Z"/><path class="cls-1" d="M88.61,26.43c-2.33,0-4.22,19.36-4.22,43.25s1.89,43.25,4.22,43.25,4.22-19.36,4.22-43.25-1.89-43.25-4.22-43.25Z"/><path class="cls-1" d="M72.79,11.66c-3.5,0-6.33,25.98-6.33,58.02s2.83,58.02,6.33,58.02,6.33-25.98,6.33-58.02-2.83-58.02-6.33-58.02Z"/><ellipse class="cls-1" cx="54.85" cy="69.68" rx="8.44" ry="65.93"/><path class="cls-1" d="M35.76,0h-1.89c-1.33,0-2.52.83-2.97,2.08-2.95,8.16-5.24,25.25-6.18,46.44-1.01-17.43-3.25-32.68-6.27-43.84-.75-2.76-3.25-4.68-6.11-4.68h-6C2.83,0,0,2.83,0,6.33v126.64c0,3.5,2.83,6.33,6.33,6.33h6.01c2.86,0,5.36-1.92,6.11-4.69,3.02-11.15,5.25-26.38,6.26-43.78.93,21.13,3.21,38.2,6.15,46.38.45,1.26,1.64,2.09,2.98,2.09h1.93c1.34,0,2.53-.84,2.98-2.1,3.87-10.78,6.61-36.95,6.61-67.53s-2.74-56.85-6.63-67.59c-.45-1.25-1.64-2.09-2.98-2.09Z"/></svg>