<?xml version="1.0" encoding="UTF-8"?>
<svg id="Layer_1" xmlns="http://www.w3.org/2000/svg" version="1.1" viewBox="0 0 40 40">
  <!-- Generator: Adobe Illustrator 29.2.1, SVG Export Plug-In . SVG Version: 2.1.0 Build 116)  -->
  <defs>
    <style>
      .st0 {
        fill: #fff;
      }
    </style>
  </defs>
  <path class="st0" d="M32.6,14.7c-.3,0-.5,2.4-.5,5.3s.2,5.3.5,5.3.5-2.4.5-5.3-.2-5.3-.5-5.3Z"/>
  <path class="st0" d="M29.2,9.1c-.6,0-1.1,4.9-1.1,10.9s.5,10.9,1.1,10.9,1.1-4.9,1.1-10.9-.5-10.9-1.1-10.9Z"/>
  <path class="st0" d="M25.2,5.4c-.9,0-1.6,6.5-1.6,14.6s.7,14.6,1.6,14.6,1.6-6.5,1.6-14.6-.7-14.6-1.6-14.6Z"/>
  <ellipse class="st0" cx="20.7" cy="20" rx="2.1" ry="16.6"/>
  <path class="st0" d="M15.9,2.5h-.5c-.3,0-.6.2-.7.5-.7,2.1-1.3,6.4-1.6,11.7-.3-4.4-.8-8.2-1.6-11-.2-.7-.8-1.2-1.5-1.2h-1.5c-.9,0-1.6.7-1.6,1.6v31.9c0,.9.7,1.6,1.6,1.6h1.5c.7,0,1.3-.5,1.5-1.2.8-2.8,1.3-6.6,1.6-11,.2,5.3.8,9.6,1.5,11.7.1.3.4.5.7.5h.5c.3,0,.6-.2.7-.5,1-2.7,1.7-9.3,1.7-17s-.7-14.3-1.7-17c-.1-.3-.4-.5-.7-.5h0Z"/>
</svg>