<svg width="64" height="48" viewBox="0 0 64 48" fill="none" xmlns="http://www.w3.org/2000/svg">
<path d="M32.0006 37.6148L32.3729 37.022L32.0005 36.7882L31.6283 37.022L32.0006 37.6148ZM32.0022 10.3832L31.6298 10.9759L32.0022 11.2099L32.3746 10.9759L32.0022 10.3832ZM32.0018 12.0846L32.4112 11.5168L32.0019 11.2217L31.5925 11.5167L32.0018 12.0846ZM32.0032 35.9134L31.594 36.4814L32.0035 36.7765L32.4128 36.4811L32.0032 35.9134ZM30.7352 11.2692L31.164 11.8225L31.9918 11.1809L31.0824 10.6614L30.7352 11.2692ZM30.7352 36.7278L31.0824 37.3356L31.9918 36.8161L31.164 36.1745L30.7352 36.7278ZM33.2686 11.2695L32.9214 10.6617L32.0123 11.1811L32.8397 11.8227L33.2686 11.2695ZM33.2688 36.7292L32.8398 36.1762L32.0123 36.8181L32.9218 37.3372L33.2688 36.7292ZM8.69707 23.9985C8.69707 15.5483 15.4309 8.7 23.7376 8.7V7.3C14.6351 7.3 7.29707 14.7979 7.29707 23.9985H8.69707ZM23.7376 39.297C15.4309 39.297 8.69707 32.4487 8.69707 23.9985H7.29707C7.29707 33.1991 14.6351 40.697 23.7376 40.697V39.297ZM31.6283 37.022C29.3344 38.4631 26.633 39.297 23.7376 39.297V40.697C26.9062 40.697 29.8644 39.7834 32.373 38.2075L31.6283 37.022ZM40.2647 39.2972C37.368 39.2972 34.6671 38.4626 32.3729 37.022L31.6284 38.2076C34.137 39.7828 37.0946 40.6972 40.2647 40.6972V39.2972ZM55.3034 23.9987C55.3034 32.449 48.5714 39.2972 40.2647 39.2972V40.6972C49.3674 40.6972 56.7034 33.1991 56.7034 23.9987H55.3034ZM40.2647 8.70022C48.5714 8.70022 55.3034 15.5485 55.3034 23.9987H56.7034C56.7034 14.7983 49.3674 7.30022 40.2647 7.30022V8.70022ZM32.3746 10.9759C34.6685 9.53446 37.3687 8.70022 40.2647 8.70022V7.30022C37.0953 7.30022 34.1383 8.21418 31.6297 9.79052L32.3746 10.9759ZM23.7376 8.7C26.6337 8.7 29.3356 9.53432 31.6298 10.9759L32.3746 9.79052C29.8657 8.21397 26.9069 7.3 23.7376 7.3V8.7ZM31.5925 11.5167C27.7497 14.2865 25.2396 18.8431 25.2396 23.9985H26.6396C26.6396 19.3066 28.9222 15.1671 32.4111 12.6525L31.5925 11.5167ZM25.2396 23.9985C25.2396 29.1546 27.7503 33.7117 31.594 36.4814L32.4124 35.3455C28.9228 32.831 26.6396 28.691 26.6396 23.9985H25.2396ZM32.4128 36.4811C36.2532 33.7096 38.7627 29.1535 38.7627 23.9987H37.3627C37.3627 28.69 35.0806 32.8293 31.5936 35.3458L32.4128 36.4811ZM38.7627 23.9987C38.7627 18.8432 36.2525 14.2865 32.4112 11.5168L31.5924 12.6524C35.0799 15.167 37.3627 19.3067 37.3627 23.9987H38.7627ZM23.7376 8.71167C15.4376 8.71167 8.70874 15.5545 8.70874 23.9985H10.1087C10.1087 16.3056 16.2328 10.1117 23.7376 10.1117V8.71167ZM31.0824 10.6614C28.9104 9.42064 26.4061 8.71167 23.7376 8.71167V10.1117C26.1545 10.1117 28.4205 10.7531 30.388 11.877L31.0824 10.6614ZM25.2279 23.9985C25.2279 19.0303 27.5571 14.618 31.164 11.8225L30.3064 10.7159C26.3681 13.7682 23.8279 18.5839 23.8279 23.9985H25.2279ZM31.164 36.1745C27.5571 33.379 25.2279 28.9667 25.2279 23.9985H23.8279C23.8279 29.4131 26.3681 34.2288 30.3064 37.2811L31.164 36.1745ZM23.7376 39.2853C26.4061 39.2853 28.9104 38.5764 31.0824 37.3356L30.388 36.12C28.4205 37.2439 26.1545 37.8853 23.7376 37.8853V39.2853ZM8.70874 23.9985C8.70874 32.4425 15.4376 39.2853 23.7376 39.2853V37.8853C16.2328 37.8853 10.1087 31.6915 10.1087 23.9985H8.70874ZM32.8397 11.8227C36.4452 14.6182 38.7744 19.0305 38.7744 23.9987H40.1744C40.1744 18.5842 37.6342 13.7686 33.6976 10.7163L32.8397 11.8227ZM40.2647 8.71189C37.5962 8.71189 35.0931 9.42089 32.9214 10.6617L33.6159 11.8773C35.5832 10.7533 37.8478 10.1119 40.2647 10.1119V8.71189ZM55.2918 23.9987C55.2918 15.5547 48.5647 8.71189 40.2647 8.71189V10.1119C47.7693 10.1119 53.8918 16.3056 53.8918 23.9987H55.2918ZM40.2647 39.2856C48.5647 39.2856 55.2918 32.4427 55.2918 23.9987H53.8918C53.8918 31.6919 47.7693 37.8856 40.2647 37.8856V39.2856ZM32.9218 37.3372C35.0934 38.5766 37.5963 39.2856 40.2647 39.2856V37.8856C37.8479 37.8856 35.5832 37.2442 33.6158 36.1213L32.9218 37.3372ZM38.7744 23.9987C38.7744 28.9669 36.4453 33.3792 32.8398 36.1762L33.6979 37.2823C37.6342 34.2287 40.1744 29.4133 40.1744 23.9987H38.7744Z" fill="white"/>
</svg>
