<svg xmlns="http://www.w3.org/2000/svg" xmlns:xlink="http://www.w3.org/1999/xlink" viewBox="0,0,256,256" width="50px" height="50px" fill-rule="nonzero"><g fill="#ffffff" fill-rule="nonzero" stroke="none" stroke-width="1" stroke-linecap="butt" stroke-linejoin="miter" stroke-miterlimit="10" stroke-dasharray="" stroke-dashoffset="0" font-family="none" font-weight="none" font-size="none" text-anchor="none" style="mix-blend-mode: normal"><g transform="scale(5.12,5.12)"><path d="M24.90625,1.96875c-0.04297,0.00781 -0.08594,0.01953 -0.125,0.03125c-0.46484,0.10547 -0.79297,0.52344 -0.78125,1v7c-0.00391,0.35938 0.18359,0.69531 0.49609,0.87891c0.3125,0.17969 0.69531,0.17969 1.00781,0c0.3125,-0.18359 0.5,-0.51953 0.49609,-0.87891v-7c0.01172,-0.28906 -0.10547,-0.56641 -0.3125,-0.76172c-0.21094,-0.19922 -0.49609,-0.29688 -0.78125,-0.26953zM17.8125,2c-0.38281,0.06641 -0.69141,0.35156 -0.78906,0.72656c-0.10156,0.375 0.02344,0.77344 0.32031,1.02344c3.4375,2.89453 3.65625,7.28125 3.65625,7.28125c0.01563,0.55078 0.48047,0.98438 1.03125,0.96875c0.55078,-0.01562 0.98438,-0.48047 0.96875,-1.03125c0,0 -0.17969,-5.21094 -4.34375,-8.71875c-0.22656,-0.21094 -0.53906,-0.30078 -0.84375,-0.25zM31.875,2c-0.19922,0.02734 -0.38281,0.11719 -0.53125,0.25c-4.16406,3.50781 -4.34375,8.71875 -4.34375,8.71875c-0.01562,0.55078 0.41797,1.01563 0.96875,1.03125c0.55078,0.01563 1.01563,-0.41797 1.03125,-0.96875c0,0 0.21875,-4.38672 3.65625,-7.28125c0.33594,-0.28906 0.44141,-0.76172 0.26172,-1.16406c-0.17969,-0.40625 -0.60547,-0.64453 -1.04297,-0.58594zM11.8125,5.5c-0.55078,0.05078 -0.95703,0.54297 -0.90625,1.09375c0.05078,0.55078 0.54297,0.95703 1.09375,0.90625c3.38672,0 4.81641,0.80859 5.4375,1.4375c0.3125,0.31641 0.4375,0.61719 0.5,0.8125c0.0625,0.19531 0.0625,0.21875 0.0625,0.21875c-0.01562,0.55078 0.41797,1.01563 0.96875,1.03125c0.55078,0.01563 1.01563,-0.41797 1.03125,-0.96875c0,0 0.01563,-0.41406 -0.125,-0.875c-0.14062,-0.46094 -0.44922,-1.03516 -1,-1.59375c-1.10156,-1.12109 -3.16016,-2.0625 -6.875,-2.0625c-0.03125,0 -0.0625,0 -0.09375,0c-0.03125,0 -0.0625,0 -0.09375,0zM37,5.5c-3.24219,0 -5.10547,0.96094 -6.0625,2.09375c-0.95703,1.13281 -0.9375,2.4375 -0.9375,2.4375c0.01563,0.55078 0.48047,0.98438 1.03125,0.96875c0.55078,-0.01562 0.98438,-0.48047 0.96875,-1.03125c0,0 -0.05078,-0.44531 0.46875,-1.0625c0.51953,-0.61719 1.67188,-1.40625 4.53125,-1.40625c0.35938,0.00391 0.69531,-0.18359 0.87891,-0.49609c0.17969,-0.3125 0.17969,-0.69531 0,-1.00781c-0.18359,-0.3125 -0.51953,-0.5 -0.87891,-0.49609zM31.15625,12.59375c-0.375,0.04297 -0.72266,0.15234 -1.0625,0.3125c-0.54687,0.25391 -1.10156,0.62109 -1.5625,1.09375c-0.08594,-0.15625 -0.16797,-0.30078 -0.3125,-0.4375c-0.39453,-0.36719 -0.875,-0.47656 -1.375,-0.53125c-0.49219,-0.05469 -1.07422,-0.05469 -1.84375,-0.03125c-0.01172,0 -0.01953,0 -0.03125,0c-1.58984,0.00391 -2.74219,0.26953 -3.59375,0.78125c-0.25391,0.15234 -0.46484,0.32813 -0.65625,0.53125c-0.51562,-0.71875 -1.24609,-1.125 -2.0625,-1.4375c-0.4375,-0.16797 -0.88672,-0.30469 -1.46875,-0.1875c-0.29297,0.05859 -0.63672,0.23047 -0.875,0.53125c-0.23828,0.30078 -0.3125,0.64453 -0.3125,0.96875c0,4.10156 -2.61719,10.80859 -5.6875,16.75h0.03125l-0.03125,0.0625c-3.80078,7.5 -8.125,14.1875 -8.125,14.1875l-0.09375,0.21875c-0.19922,0.60156 -0.17969,1.28125 0.21875,1.78125c0.39844,0.5 0.98828,0.8125 1.6875,0.8125h42c0.69922,0 1.28906,-0.30469 1.6875,-0.90625c0.30078,-0.5 0.41797,-1.1875 0.21875,-1.6875l-0.09375,-0.21875c0,-0.10156 -4.5,-6.38672 -8.5,-13.6875l-0.09375,-0.15625l0.0625,-0.03125c-3.26953,-5.94531 -6.1875,-12.75781 -6.1875,-16.8125c0,-0.28516 -0.01953,-0.55078 -0.125,-0.84375c-0.08594,-0.23828 -0.32031,-0.48437 -0.59375,-0.6875l0.0625,-0.0625c-0.04297,-0.03516 -0.08203,-0.00391 -0.125,-0.03125c-0.03125,-0.01953 -0.03125,-0.04687 -0.0625,-0.0625l-0.03125,0.03125c-0.36328,-0.19531 -0.75,-0.28516 -1.0625,-0.25zM31.125,14.65625c0.05859,4.71094 2.84375,11.02734 5.96875,16.8125c-1.53906,0.21094 -2.58203,-1.15234 -4,-3.28125c-1.10156,-1.60156 -2.30078,-3.28125 -4,-3.28125c-1.60156,0 -2.20703,1.67969 -2.90625,3.28125c-0.69922,1.69922 -1.19531,3 -2.09375,3c-0.80078,0 -0.80469,-0.10156 -0.90625,-1c-0.10156,-0.69922 -0.29297,-2.1875 -2.09375,-2.1875c-1.89844,0 -3.29297,1.88672 -4.59375,3.6875c-1.10156,1.5 -2.19531,3.01953 -3.09375,2.71875c-0.68359,-0.19531 -0.98437,-1.89453 -1.09375,-3c2.92578,-5.72656 5.44531,-11.92969 5.625,-16.65625c0.01953,0.00781 0.01172,-0.00781 0.03125,0c0.5,0.19141 1.20703,0.80859 1.1875,0.78125c0.58203,0.90625 0.6875,1.82031 0.65625,2.5625c-0.44141,2.75 -1.59375,4.28125 -1.59375,4.28125c-0.34375,0.42969 -0.27734,1.0625 0.15625,1.40625c0.42969,0.34375 1.0625,0.27734 1.40625,-0.15625c0,0 0.85156,-1.13281 1.5,-3.09375h0.03125c0,0 0.37109,-0.87891 0.46875,-2.125c0.125,-0.74219 0.21875,-1.53516 0.21875,-2.40625c0,-0.16797 -0.01562,-0.29687 0.375,-0.53125c0.39063,-0.23437 1.23438,-0.46875 2.625,-0.46875h0.03125c0.75781,-0.02344 1.28906,-0.03125 1.59375,0c0.10156,0.01172 0.14063,0.01953 0.1875,0.03125c0.00391,0.02344 0.01953,0.02734 0.03125,0.09375c0.03906,0.21484 0.07422,0.61328 0.15625,1.125c0.26953,1.82813 0.83203,3.08984 1.34375,3.90625c0.51172,0.81641 1.0625,1.25 1.0625,1.25c0.44922,0.32813 1.07813,0.23047 1.40625,-0.21875c0.32813,-0.44922 0.23047,-1.07812 -0.21875,-1.40625c0,0 -0.19922,-0.10547 -0.5625,-0.6875c-0.32422,-0.51953 -0.69531,-1.37109 -0.9375,-2.65625c0.18359,-0.19141 0.39844,-0.44141 0.6875,-0.8125c0.28125,-0.35156 0.76563,-0.72266 1.15625,-0.90625c0.08594,-0.03906 0.11719,-0.03906 0.1875,-0.0625z"></path></g></g></svg>