<svg xmlns="http://www.w3.org/2000/svg"  viewBox="0 0 50 50" width="50px" height="50px"><path d="M 24.90625 1.96875 C 24.863281 1.976563 24.820313 1.988281 24.78125 2 C 24.316406 2.105469 23.988281 2.523438 24 3 L 24 10 C 23.996094 10.359375 24.183594 10.695313 24.496094 10.878906 C 24.808594 11.058594 25.191406 11.058594 25.503906 10.878906 C 25.816406 10.695313 26.003906 10.359375 26 10 L 26 3 C 26.011719 2.710938 25.894531 2.433594 25.6875 2.238281 C 25.476563 2.039063 25.191406 1.941406 24.90625 1.96875 Z M 17.8125 2 C 17.429688 2.066406 17.121094 2.351563 17.023438 2.726563 C 16.921875 3.101563 17.046875 3.5 17.34375 3.75 C 20.78125 6.644531 21 11.03125 21 11.03125 C 21.015625 11.582031 21.480469 12.015625 22.03125 12 C 22.582031 11.984375 23.015625 11.519531 23 10.96875 C 23 10.96875 22.820313 5.757813 18.65625 2.25 C 18.429688 2.039063 18.117188 1.949219 17.8125 2 Z M 31.875 2 C 31.675781 2.027344 31.492188 2.117188 31.34375 2.25 C 27.179688 5.757813 27 10.96875 27 10.96875 C 26.984375 11.519531 27.417969 11.984375 27.96875 12 C 28.519531 12.015625 28.984375 11.582031 29 11.03125 C 29 11.03125 29.21875 6.644531 32.65625 3.75 C 32.992188 3.460938 33.097656 2.988281 32.917969 2.585938 C 32.738281 2.179688 32.3125 1.941406 31.875 2 Z M 11.8125 5.5 C 11.261719 5.550781 10.855469 6.042969 10.90625 6.59375 C 10.957031 7.144531 11.449219 7.550781 12 7.5 C 15.386719 7.5 16.816406 8.308594 17.4375 8.9375 C 17.75 9.253906 17.875 9.554688 17.9375 9.75 C 18 9.945313 18 9.96875 18 9.96875 C 17.984375 10.519531 18.417969 10.984375 18.96875 11 C 19.519531 11.015625 19.984375 10.582031 20 10.03125 C 20 10.03125 20.015625 9.617188 19.875 9.15625 C 19.734375 8.695313 19.425781 8.121094 18.875 7.5625 C 17.773438 6.441406 15.714844 5.5 12 5.5 C 11.96875 5.5 11.9375 5.5 11.90625 5.5 C 11.875 5.5 11.84375 5.5 11.8125 5.5 Z M 37 5.5 C 33.757813 5.5 31.894531 6.460938 30.9375 7.59375 C 29.980469 8.726563 30 10.03125 30 10.03125 C 30.015625 10.582031 30.480469 11.015625 31.03125 11 C 31.582031 10.984375 32.015625 10.519531 32 9.96875 C 32 9.96875 31.949219 9.523438 32.46875 8.90625 C 32.988281 8.289063 34.140625 7.5 37 7.5 C 37.359375 7.503906 37.695313 7.316406 37.878906 7.003906 C 38.058594 6.691406 38.058594 6.308594 37.878906 5.996094 C 37.695313 5.683594 37.359375 5.496094 37 5.5 Z M 31.15625 12.59375 C 30.78125 12.636719 30.433594 12.746094 30.09375 12.90625 C 29.546875 13.160156 28.992188 13.527344 28.53125 14 C 28.445313 13.84375 28.363281 13.699219 28.21875 13.5625 C 27.824219 13.195313 27.34375 13.085938 26.84375 13.03125 C 26.351563 12.976563 25.769531 12.976563 25 13 C 24.988281 13 24.980469 13 24.96875 13 C 23.378906 13.003906 22.226563 13.269531 21.375 13.78125 C 21.121094 13.933594 20.910156 14.109375 20.71875 14.3125 C 20.203125 13.59375 19.472656 13.1875 18.65625 12.875 C 18.21875 12.707031 17.769531 12.570313 17.1875 12.6875 C 16.894531 12.746094 16.550781 12.917969 16.3125 13.21875 C 16.074219 13.519531 16 13.863281 16 14.1875 C 16 18.289063 13.382813 24.996094 10.3125 30.9375 L 10.34375 30.9375 L 10.3125 31 C 6.511719 38.5 2.1875 45.1875 2.1875 45.1875 L 2.09375 45.40625 C 1.894531 46.007813 1.914063 46.6875 2.3125 47.1875 C 2.710938 47.6875 3.300781 48 4 48 L 46 48 C 46.699219 48 47.289063 47.695313 47.6875 47.09375 C 47.988281 46.59375 48.105469 45.90625 47.90625 45.40625 L 47.8125 45.1875 C 47.8125 45.085938 43.3125 38.800781 39.3125 31.5 L 39.21875 31.34375 L 39.28125 31.3125 C 36.011719 25.367188 33.09375 18.554688 33.09375 14.5 C 33.09375 14.214844 33.074219 13.949219 32.96875 13.65625 C 32.882813 13.417969 32.648438 13.171875 32.375 12.96875 L 32.4375 12.90625 C 32.394531 12.871094 32.355469 12.902344 32.3125 12.875 C 32.28125 12.855469 32.28125 12.828125 32.25 12.8125 L 32.21875 12.84375 C 31.855469 12.648438 31.46875 12.558594 31.15625 12.59375 Z M 31.125 14.65625 C 31.183594 19.367188 33.96875 25.683594 37.09375 31.46875 C 35.554688 31.679688 34.511719 30.316406 33.09375 28.1875 C 31.992188 26.585938 30.792969 24.90625 29.09375 24.90625 C 27.492188 24.90625 26.886719 26.585938 26.1875 28.1875 C 25.488281 29.886719 24.992188 31.1875 24.09375 31.1875 C 23.292969 31.1875 23.289063 31.085938 23.1875 30.1875 C 23.085938 29.488281 22.894531 28 21.09375 28 C 19.195313 28 17.800781 29.886719 16.5 31.6875 C 15.398438 33.1875 14.304688 34.707031 13.40625 34.40625 C 12.722656 34.210938 12.421875 32.511719 12.3125 31.40625 C 15.238281 25.679688 17.757813 19.476563 17.9375 14.75 C 17.957031 14.757813 17.949219 14.742188 17.96875 14.75 C 18.46875 14.941406 19.175781 15.558594 19.15625 15.53125 C 19.738281 16.4375 19.84375 17.351563 19.8125 18.09375 C 19.371094 20.84375 18.21875 22.375 18.21875 22.375 C 17.875 22.804688 17.941406 23.4375 18.375 23.78125 C 18.804688 24.125 19.4375 24.058594 19.78125 23.625 C 19.78125 23.625 20.632813 22.492188 21.28125 20.53125 L 21.3125 20.53125 C 21.3125 20.53125 21.683594 19.652344 21.78125 18.40625 C 21.90625 17.664063 22 16.871094 22 16 C 22 15.832031 21.984375 15.703125 22.375 15.46875 C 22.765625 15.234375 23.609375 15 25 15 L 25.03125 15 C 25.789063 14.976563 26.320313 14.96875 26.625 15 C 26.726563 15.011719 26.765625 15.019531 26.8125 15.03125 C 26.816406 15.054688 26.832031 15.058594 26.84375 15.125 C 26.882813 15.339844 26.917969 15.738281 27 16.25 C 27.269531 18.078125 27.832031 19.339844 28.34375 20.15625 C 28.855469 20.972656 29.40625 21.40625 29.40625 21.40625 C 29.855469 21.734375 30.484375 21.636719 30.8125 21.1875 C 31.140625 20.738281 31.042969 20.109375 30.59375 19.78125 C 30.59375 19.78125 30.394531 19.675781 30.03125 19.09375 C 29.707031 18.574219 29.335938 17.722656 29.09375 16.4375 C 29.277344 16.246094 29.492188 15.996094 29.78125 15.625 C 30.0625 15.273438 30.546875 14.902344 30.9375 14.71875 C 31.023438 14.679688 31.054688 14.679688 31.125 14.65625 Z"/></svg>