<?xml version="1.0" encoding="UTF-8"?>
<svg id="Layer_1" xmlns="http://www.w3.org/2000/svg" xmlns:xlink="http://www.w3.org/1999/xlink" version="1.1" viewBox="0 0 24 24">
  <!-- Generator: Adobe Illustrator 29.2.1, SVG Export Plug-In . SVG Version: 2.1.0 Build 116)  -->
  <defs>
    <style>
      .st0 {
        fill: #fff;
      }
    </style>
  </defs>
  <path class="st0" d="M11.2,19.3C6.3,14.8,3,11.8,3,8.5s2-4.5,4.5-4.5,2.8.6,3.7,1.7l.8.9.8-.9c.9-1.1,2.3-1.7,3.7-1.7,2.5,0,4.5,2,4.5,4.5s-3.3,6.3-8.2,10.8l-.8.7-.8-.7Z"/>
  <path d="M16.5,5c2,0,3.5,1.5,3.5,3.5,0,2.9-3.1,5.7-7.9,10.1h-.1c0,0-.1,0-.1,0-4.8-4.3-7.9-7.2-7.9-10s1.5-3.5,3.5-3.5,2.3.5,3,1.4l1.5,1.8,1.5-1.8c.7-.9,1.9-1.4,3-1.4M16.5,3c-1.7,0-3.4.8-4.5,2.1-1.1-1.3-2.8-2.1-4.5-2.1-3.1,0-5.5,2.4-5.5,5.5s3.4,6.9,8.6,11.5l1.4,1.3,1.4-1.3c5.2-4.7,8.6-7.8,8.6-11.5s-2.4-5.5-5.5-5.5h0Z"/>
</svg>