<svg xmlns="http://www.w3.org/2000/svg" xmlns:xlink="http://www.w3.org/1999/xlink" viewBox="0,0,256,256" width="50px" height="50px" fill-rule="nonzero"><g fill="#ffffff" fill-rule="nonzero" stroke="none" stroke-width="1" stroke-linecap="butt" stroke-linejoin="miter" stroke-miterlimit="10" stroke-dasharray="" stroke-dashoffset="0" font-family="none" font-weight="none" font-size="none" text-anchor="none" style="mix-blend-mode: normal"><g transform="scale(5.12,5.12)"><path d="M40,32h-13v-13h13c1.657,0 3,1.343 3,3v7c0,1.657 -1.343,3 -3,3zM14,6h10c1.657,0 3,1.343 3,3v10h-13c-1.657,0 -3,-1.343 -3,-3v-7c0,-1.657 1.343,-3 3,-3zM14,45h10c1.657,0 3,-1.343 3,-3v-10h-13c-1.657,0 -3,1.343 -3,3v7c0,1.657 1.343,3 3,3z"></path></g></g></svg>