<?xml version="1.0" encoding="UTF-8"?><svg id="Layer_1" xmlns="http://www.w3.org/2000/svg" viewBox="0 0 165.8 83.04"><defs><style>.cls-1{fill:#fff;}</style></defs><path class="cls-1" d="M75.79,15.99s.59,32.27,1.48,47.67c.89,15.4-8.59,18.06-8.59,18.06,0,0-6.81,2.96-9.18,0S22.21,38.49,0,15.99c0,0,19.24-2.37,25.17,0,0,0,11.25,12.11,30.79,33l1.48-34.05,18.36,1.05h-.01Z"/><path class="cls-1" d="M80.53,14.94h14.8V0h50.04s15.99,6.51,20.43,24.28v43.82l-17.17-3.26-1.48-32.57-34.94,34.34,38.19,1.48v14.94h-45.59s-18.36-5.46-24.28-24.71V14.94Z"/><polygon points="98.59 50.92 98.59 16.28 134.71 16.28 98.59 50.92"/></svg>